# xmcd
#
# Track frame offsets: 
#        150
#        4180
#        24909
#        49639
#        73358
#        89531
#        105431
#        120990
#        138911
#        166324
#        174359
#        191962
#        213660
#        232346
#        250475
#        273482
#        290361
#        305051
#        323794
#        337061
#
# Disc length: 4731 seconds
#
# Revision: 4
# Processed by: cddbd v1.5.2PL0 Copyright (c) Steve Scherf et al.
# Submitted via: ExactAudioCopy v1.0b3
#
DISCID=2f127914
DTITLE=H-Town - Imitations Of Life (Collectores Edition 1 Of 4)
DYEAR=2004
DGENRE=R&B
TTITLE0=Nothin In Common (Intro)
TTITLE1=Nothin In Common
TTITLE2=Let's Just Make It (Feat. Crystal Conner)
TTITLE3=My Pink Sky
TTITLE4=Back Home To Lovin You
TTITLE5=Strip Club Junkies
TTITLE6=The Thrill Is Gone
TTITLE7=Here We Go Again
TTITLE8=Cryin Out My Heart To You
TTITLE9=Your Body (Interlude)
TTITLE10=Feel Like Fire
TTITLE11=Sex Dance
TTITLE12=More Ways To Love A Woman
TTITLE13=Champagne Bubble Bath And Me
TTITLE14=The Day I Die
TTITLE15=Stop Living In Colors
TTITLE16=Unpredictable
TTITLE17=She's Actin Bad (Feat. Big Mike, MC Qua and Ci' Che')
TTITLE18=Slow And Easy (Feat. Zapp)
TTITLE19=Spank Me
EXTD=
EXTT0=
EXTT1=
EXTT2=
EXTT3=
EXTT4=
EXTT5=
EXTT6=
EXTT7=
EXTT8=
EXTT9=
EXTT10=
EXTT11=
EXTT12=
EXTT13=
EXTT14=
EXTT15=
EXTT16=
EXTT17=
EXTT18=
EXTT19=
PLAYORDER=
